<svg width="91" height="63" viewBox="0 0 91 63" fill="none" xmlns="http://www.w3.org/2000/svg">
<path d="M30.809 0.0825997C14.911 0.42635 0 12.9306 0 31.2116C0 55.5126 26.438 69.7196 46.473 58.3526C47.598 57.712 47.9886 56.2823 47.3519 55.1573C47.0433 54.6182 46.5355 54.2198 45.9378 54.0518C45.3363 53.8877 44.6956 53.9659 44.1566 54.2705C27.0976 63.9502 4.69961 52.1416 4.69961 31.2115C4.69961 10.2075 27.1956 -1.50345 44.2266 8.10955H44.2227C44.7657 8.41424 45.4063 8.49627 46.0079 8.3283C46.6056 8.16033 47.1134 7.76189 47.4181 7.2228C47.7267 6.67983 47.8048 6.0392 47.6369 5.4416C47.4728 4.84004 47.0744 4.3322 46.5314 4.0275C41.5275 1.2033 36.11 -0.0307003 30.809 0.0825997Z" fill="#CB9742"/>
<path d="M59.414 0.000598907C42.207 0.000598907 28.203 13.9926 28.203 31.1996C28.203 48.4066 42.207 62.4106 59.414 62.4106C76.621 62.4106 90.613 48.4066 90.613 31.1996V31.2035C90.613 29.9105 89.5661 28.8597 88.2732 28.8597C86.9802 28.8597 85.9334 29.9105 85.9334 31.2035C85.9334 45.8755 74.0894 57.7195 59.4174 57.7195C44.7454 57.7195 32.9014 45.8755 32.9014 31.2035C32.9014 16.5315 44.7454 4.68751 59.4174 4.68751C66.7533 4.68751 73.3584 7.6602 78.1594 12.4609C80.5617 14.8632 82.5032 17.7109 83.8469 20.8828L83.843 20.8789C84.3469 22.0703 85.7219 22.625 86.9133 22.125C88.1008 21.6211 88.6594 20.2461 88.1555 19.0547C86.5774 15.3203 84.3 11.957 81.4758 9.1367C75.8313 3.4922 68.0148 0 59.4098 0L59.414 0.000598907Z" fill="#CB9742"/>
<path d="M25.551 9.94563C13.27 16.2112 13.289 28.2576 13.289 31.2036C13.289 44.1446 23.832 54.6876 36.773 54.6876C37.8355 54.6837 38.9019 54.6056 39.9566 54.4572C41.2378 54.2775 42.1285 53.0939 41.9527 51.8166C41.773 50.5354 40.5894 49.6447 39.3121 49.8205C38.4723 49.9377 37.6207 50.0002 36.773 50.0041C26.367 50.0041 17.972 41.6096 17.972 31.2031C17.972 27.9843 17.4486 19.3361 27.6712 14.1211C28.8235 13.5351 29.2845 12.125 28.6985 10.9727C28.4173 10.418 27.929 9.99999 27.3352 9.80855C26.7454 9.61714 26.1008 9.66402 25.5461 9.94918L25.551 9.94563Z" fill="#CB9742"/>
</svg>
